<svg xmlns="http://www.w3.org/2000/svg" viewBox="0 0 100 100">
  <defs>
    <linearGradient id="grad" x1="0%" y1="0%" x2="100%" y2="100%">
      <stop offset="0%" style="stop-color:#11d452;stop-opacity:1" />
      <stop offset="100%" style="stop-color:#0d1b12;stop-opacity:1" />
    </linearGradient>
  </defs>
  <!-- Background circle -->
  <circle cx="50" cy="50" r="48" fill="url(#grad)"/>
  <!-- Open book icon -->
  <g transform="translate(20, 25)" fill="white">
    <!-- Left page -->
    <path d="M28 5C22 5 16 7 10 10V45C16 42 22 40 28 40C34 40 40 42 46 45V10C40 7 34 5 28 5Z" fill="white" opacity="0.9"/>
    <!-- Right page -->
    <path d="M32 5C38 5 44 7 50 10V45C44 42 38 40 32 40C26 40 20 42 14 45V10C20 7 26 5 32 5Z" fill="white" opacity="0.7"/>
    <!-- Center binding -->
    <rect x="28" y="5" width="4" height="40" fill="white" opacity="0.5"/>
    <!-- Lines on left page -->
    <line x1="14" y1="15" x2="26" y2="15" stroke="#11d452" stroke-width="1.5" opacity="0.6"/>
    <line x1="14" y1="22" x2="26" y2="22" stroke="#11d452" stroke-width="1.5" opacity="0.6"/>
    <line x1="14" y1="29" x2="26" y2="29" stroke="#11d452" stroke-width="1.5" opacity="0.6"/>
    <!-- Lines on right page -->
    <line x1="34" y1="15" x2="46" y2="15" stroke="#11d452" stroke-width="1.5" opacity="0.6"/>
    <line x1="34" y1="22" x2="46" y2="22" stroke="#11d452" stroke-width="1.5" opacity="0.6"/>
    <line x1="34" y1="29" x2="46" y2="29" stroke="#11d452" stroke-width="1.5" opacity="0.6"/>
  </g>
</svg>

